<?xml version="1.0" standalone="no"?>
<!DOCTYPE svg PUBLIC "-//W3C//DTD SVG 20010904//EN"
 "http://www.w3.org/TR/2001/REC-SVG-20010904/DTD/svg10.dtd">
<svg version="1.0" xmlns="http://www.w3.org/2000/svg"
 width="200.000000pt" height="200.000000pt" viewBox="0 0 200.000000 200.000000"
 preserveAspectRatio="xMidYMid meet">
<metadata>
Created by potrace 1.14, written by Peter Selinger 2001-2017
</metadata>
<g transform="translate(0.000000,200.000000) scale(0.100000,-0.100000)"
fill="#000000" stroke="none">
<path d="M0 1000 l0 -1000 1000 0 1000 0 0 1000 0 1000 -1000 0 -1000 0 0
-1000z m1164 674 l166 -96 0 -193 0 -193 -165 -96 -165 -95 -165 95 -165 96 0
193 0 193 163 95 c89 52 163 96 163 96 1 1 77 -42 168 -95z m-443 -856 c6 -24
19 -72 29 -108 l18 -65 17 60 c9 33 23 80 29 105 12 40 17 45 44 48 l32 3 0
-185 0 -186 -25 0 -24 0 -3 118 -3 117 -20 -75 c-18 -67 -23 -75 -46 -78 -25
-3 -28 1 -45 70 l-19 73 -5 -110 c-5 -105 -6 -110 -27 -113 l-23 -3 0 185 0
186 30 0 c26 0 30 -5 41 -42z m377 30 c7 -7 12 -32 12 -56 0 -41 -1 -43 -27
-40 -23 2 -29 8 -31 36 -3 27 -7 32 -28 32 -24 0 -25 -2 -22 -57 l3 -58 40 -3
c22 -2 45 -8 52 -14 15 -12 18 -155 4 -177 -5 -7 -32 -16 -60 -19 -71 -6 -101
14 -101 68 0 38 2 40 30 40 27 0 30 -3 30 -30 0 -25 4 -30 25 -30 24 0 25 3
25 60 l0 60 -39 0 c-59 0 -71 18 -71 104 0 43 5 77 12 84 7 7 39 12 73 12 34
0 66 -5 73 -12z m219 -163 c18 -93 32 -176 33 -183 0 -9 -10 -12 -27 -10 -24
3 -29 9 -36 46 -8 42 -9 43 -45 40 -35 -3 -37 -5 -42 -43 -4 -35 -9 -40 -32
-43 -18 -2 -28 1 -28 10 0 7 13 87 30 178 16 91 30 169 30 173 0 5 19 7 42 5
l42 -3 33 -170z"/>
<path d="M860 1631 l-135 -79 0 -167 0 -167 138 -80 137 -80 138 80 137 80 0
167 0 167 -135 79 c-74 43 -137 78 -140 78 -3 0 -66 -35 -140 -78z m158 -67
c2 -16 13 -39 24 -51 15 -16 19 -31 16 -55 -8 -49 0 -63 23 -42 29 26 45 4 20
-27 -19 -24 -19 -24 6 -73 17 -34 21 -51 14 -56 -7 -3 -9 -14 -5 -23 3 -9 2
-17 -4 -17 -5 0 -22 28 -38 63 l-28 62 -46 0 -46 0 -28 -62 c-16 -35 -33 -63
-38 -63 -6 0 -7 8 -4 17 4 9 2 20 -5 23 -7 5 -3 23 15 58 l25 50 -19 25 c-24
30 -9 48 19 23 17 -16 19 -16 25 -1 3 9 3 28 0 42 -5 17 0 34 15 53 11 16 21
40 21 53 0 47 33 48 38 1z"/>
<path d="M973 1484 c-3 -8 0 -26 7 -38 9 -17 9 -29 1 -43 -13 -26 -2 -38 15
-15 13 16 13 16 14 -1 0 -10 5 -15 10 -12 7 4 6 13 -1 27 -8 15 -8 26 1 44 16
29 7 54 -20 54 -11 0 -23 -7 -27 -16z"/>
<path d="M1237 768 c-4 -15 -10 -55 -14 -88 -6 -60 -6 -60 21 -60 30 0 30 3
12 105 -10 59 -13 66 -19 43z"/>
</g>
</svg>
